<?xml version="1.0" encoding="utf-8"?>
<!-- Generator: Adobe Illustrator 24.2.0, SVG Export Plug-In . SVG Version: 6.00 Build 0)  -->
<svg version="1.1" id="Layer_1" xmlns="http://www.w3.org/2000/svg" xmlns:xlink="http://www.w3.org/1999/xlink" x="0px" y="0px"
	 viewBox="0 0 7000 2000" style="enable-background:new 0 0 7000 2000;" xml:space="preserve">
<style type="text/css">
	.st0{fill:#020D26;}
	.st1{fill:#FFFFFF;}
</style>
<rect x="-50" y="-50" class="st0" fill-opacity="0" width="7100" height="2100"/>
<g>
	<path class="st1" d="M733.1,763.4v203.2h239.1v92.7H733.1v212.1H1002v92.6H619.6V670.8H1002v92.6H733.1z"/>
	<path class="st1" d="M1333.7,1262.5L1489,815.2h120.6L1400.5,1364H1265l-208.2-548.8h121.4L1333.7,1262.5z"/>
	<path class="st1" d="M1671.8,940.7c22.9-42.4,54.2-75.5,93.7-99.1c39.5-23.6,83.1-35.4,131-35.4c43.1,0,80.8,8.4,113,25.4
		c32.3,16.9,58,38,77.2,63.2v-79.7h114.6V1364h-114.6v-81.7c-19.2,25.9-45.5,47.5-78.6,64.7c-33.3,17.3-71.2,25.9-113.5,25.9
		c-47.2,0-90.4-12.1-129.5-36.3c-39.2-24.2-70.2-58.1-93.2-101.6c-22.8-43.5-34.3-92.8-34.3-148
		C1637.5,1032,1649,983.3,1671.8,940.7z M2063.2,990.5c-15.6-27.9-35.9-49.1-61.2-63.7c-25.2-14.6-52.4-21.9-81.7-21.9
		c-29.2,0-56.4,7.2-81.6,21.4c-25.3,14.3-45.7,35.2-61.3,62.8c-15.6,27.5-23.3,60.3-23.3,98.1c0,37.9,7.8,71.1,23.3,99.6
		c15.7,28.6,36.2,50.3,61.8,65.2c25.5,14.9,52.6,22.4,81.1,22.4c29.3,0,56.5-7.3,81.7-21.9c25.3-14.6,45.7-36,61.2-64.2
		c15.7-28.2,23.4-61.2,23.4-99.1C2086.7,1051.3,2078.9,1018.4,2063.2,990.5z"/>
	<path class="st1" d="M2723.6,833.2c34.2,17.9,60.9,44.5,80.2,79.7c19.2,35.2,28.9,77.7,28.9,127.5V1364h-112.5v-306.8
		c0-49.1-12.3-86.8-36.9-113c-24.6-26.3-58.2-39.4-100.5-39.4c-42.6,0-76.3,13.1-101.2,39.4c-24.9,26.2-37.4,63.9-37.4,113V1364
		h-113.5V815.2h113.5V878c18.6-22.6,42.4-40.2,71.3-52.8c28.9-12.6,59.6-18.9,92.1-18.9C2650.7,806.3,2689.4,815.2,2723.6,833.2z"/>
	<path class="st1" d="M3661.4,1067.2c25.9,32.6,38.8,69.4,38.8,110.6c0,35.2-9.1,66.9-27.3,95.1c-18.3,28.2-44.7,50.5-79.2,66.8
		c-34.5,16.3-74.6,24.4-120.5,24.4h-276.9V671.8h264c47.1,0,87.6,8,121.5,23.9c33.8,16,59.4,37.4,76.7,64.2
		c17.2,26.9,25.9,57,25.9,90.2c0,39.8-10.6,73.1-31.9,99.6c-21.2,26.5-49.8,46.1-85.6,58.7C3604,1015.1,3635.5,1034.7,3661.4,1067.2
		z M3309.8,962.6h140.4c37.3,0,66.2-8.4,87.2-25.4c20.9-16.9,31.3-41.3,31.3-73.2c0-31.2-10.4-55.6-31.3-73.2
		c-21-17.6-50-26.4-87.2-26.4h-140.4V962.6z M3553.8,1243.5c21.9-18.6,32.9-44.5,32.9-77.7c0-33.9-11.6-60.8-34.8-80.7
		c-23.2-20-54.2-29.9-92.7-29.9h-149.4v216.1h153.4C3501.7,1271.4,3531.9,1262.1,3553.8,1243.5z"/>
	<path class="st1" d="M4302.9,1132h-419.4c3.3,43.8,19.6,79,48.8,105.6c29.2,26.6,65,39.9,107.5,39.9c61.1,0,104.2-25.6,129.5-76.7
		h122.6c-16.7,50.5-46.7,91.8-90.2,124s-97.5,48.3-161.9,48.3c-52.4,0-99.4-11.8-140.9-35.3c-41.6-23.6-74-56.8-97.6-99.6
		c-23.7-42.8-35.4-92.5-35.4-148.9c0-56.4,11.5-106.1,34.4-148.9c22.9-42.8,55.1-75.9,96.6-99.1c41.6-23.2,89.2-34.9,142.9-34.9
		c51.8,0,98,11.3,138.5,33.8c40.4,22.6,72,54.3,94.6,95.1c22.5,40.9,33.8,87.8,33.8,140.9C4306.8,1096.8,4305.4,1115.4,4302.9,1132z
		 M4188.3,1040.3c-0.7-41.8-15.7-75.4-44.8-100.6c-29.2-25.2-65.4-37.8-108.5-37.8c-39.2,0-72.7,12.4-100.6,37.3
		c-27.8,24.9-44.4,58.6-49.8,101.1H4188.3z"/>
	<path class="st1" d="M4394.9,940.3c22.9-42.8,54.7-75.9,95.1-99.1c40.5-23.2,87-34.9,139.5-34.9c66.4,0,121.3,15.8,164.8,47.3
		c43.5,31.5,72.9,76.5,88.2,134.9H4760c-10-27.2-25.9-48.4-47.8-63.7c-21.9-15.3-49.6-22.9-82.7-22.9c-46.5,0-83.4,16.4-111,49.3
		c-27.6,32.9-41.4,78.8-41.4,137.9c0,59.1,13.7,105.3,41.4,138.5c27.5,33.2,64.5,49.8,111,49.8c65.7,0,109.2-28.9,130.5-86.7h122.5
		c-15.9,55.8-45.8,100.1-89.6,133c-43.8,32.9-98.3,49.3-163.4,49.3c-52.4,0-98.9-11.8-139.5-35.3c-40.4-23.6-72.2-56.8-95.1-99.6
		c-22.8-42.8-34.3-92.5-34.3-148.9C4360.6,1032.7,4372.1,983.1,4394.9,940.3z"/>
	<path class="st1" d="M5193.2,1090.2l253,273.9h-153.4L5089.6,1128V1364h-113.5V627h113.5v428.3l199.2-240h157.4L5193.2,1090.2z"/>
	<path class="st1" d="M6007,1132h-419.4c3.3,43.8,19.6,79,48.8,105.6c29.2,26.6,65,39.9,107.5,39.9c61.1,0,104.2-25.6,129.5-76.7
		h122.6c-16.7,50.5-46.7,91.8-90.2,124s-97.5,48.3-161.9,48.3c-52.4,0-99.4-11.8-140.9-35.3c-41.6-23.6-74-56.8-97.6-99.6
		c-23.7-42.8-35.4-92.5-35.4-148.9c0-56.4,11.5-106.1,34.4-148.9c22.9-42.8,55.1-75.9,96.6-99.1c41.6-23.2,89.2-34.9,142.9-34.9
		c51.8,0,98,11.3,138.5,33.8c40.4,22.6,72,54.3,94.6,95.1c22.5,40.9,33.8,87.8,33.8,140.9C6010.9,1096.8,6009.6,1115.4,6007,1132z
		 M5892.5,1040.3c-0.7-41.8-15.7-75.4-44.8-100.6c-29.2-25.2-65.4-37.8-108.5-37.8c-39.2,0-72.7,12.4-100.6,37.3
		c-27.8,24.9-44.4,58.6-49.8,101.1H5892.5z"/>
	<path class="st1" d="M6282.3,829.7c27.5-15.6,60.3-23.4,98.1-23.4v117.5h-28.9c-44.4,0-78.1,11.3-101.1,33.8
		c-22.9,22.6-34.4,61.7-34.4,117.5V1364h-113.5V815.2h113.5v79.7C6232.7,867,6254.8,845.3,6282.3,829.7z"/>
</g>
</svg>
