<?xml version="1.0" encoding="utf-8"?>
<!-- Generator: Adobe Illustrator 24.2.0, SVG Export Plug-In . SVG Version: 6.00 Build 0)  -->
<svg version="1.1" id="Layer_1" xmlns="http://www.w3.org/2000/svg" xmlns:xlink="http://www.w3.org/1999/xlink" x="0px" y="0px"
	 viewBox="0 0 2200 2000" style="enable-background:new 0 0 2200 2000;" xml:space="preserve">
<style type="text/css">
	.st0{fill:#020D26;}
	.st1{fill:#2D95FC;}
	.st2{fill:#41A5F7;}
	.st3{fill:#0C65E5;}
</style>
<rect x="-50" y="-50" class="st0" fill-opacity="0" width="2300" height="2100"/>
<g>
	<g>
		<path class="st1" d="M1352.5,1137.5h-137.9c-75.9,0-137.5-61.5-137.5-137.5v0c0-75.9,61.5-137.5,137.5-137.5l134.2,0
			c45.5,0,87.2-31.7,93.8-76.7c8.6-57.7-35.2-106.6-90.1-106.6h-229.5V404.3l217.2,0c195.2,0,365.5,147.6,377.7,342.4
			C1731.2,960.3,1562.1,1137.5,1352.5,1137.5z"/>
	</g>
	<g>
		<path class="st2" d="M1352.5,1595.7h-229.5v-274.9l225.8,0c45.5,0,87.2-31.7,93.8-76.7c8.6-57.7-35.2-106.6-90.1-106.6h-137.9
			c-75.9,0-137.5-61.5-137.5-137.5v0c0-75.9,61.5-137.5,137.5-137.5l125.6,0c195.2,0,365.5,147.6,377.7,342.4
			C1731.2,1418.5,1562.1,1595.7,1352.5,1595.7z"/>
	</g>
	<g>
		<path class="st3" d="M893.8,1137.5H618.9V862.5h274.9c75.9,0,137.5,61.5,137.5,137.5v0C1031.3,1075.9,969.7,1137.5,893.8,1137.5z"
			/>
	</g>
	<g>
		<path class="st3" d="M756.4,1320.7H481.4c0,151.6,123.3,274.9,274.9,274.9h366.6v-274.9H804.2H756.4z"/>
		<rect x="481.4" y="862.5" class="st3" width="274.9" height="274.9"/>
		<path class="st3" d="M756.4,404.3c-151.6,0-274.9,123.3-274.9,274.9h274.9h47.8h318.7V404.3H756.4z"/>
	</g>
</g>
</svg>
