<?xml version="1.0" encoding="utf-8"?>
<!-- Generator: Adobe Illustrator 24.2.0, SVG Export Plug-In . SVG Version: 6.00 Build 0)  -->
<svg version="1.1" id="Layer_1" xmlns="http://www.w3.org/2000/svg" xmlns:xlink="http://www.w3.org/1999/xlink" x="0px" y="0px"
	 viewBox="0 0 6000 2000" style="enable-background:new 0 0 6000 2000;" xml:space="preserve">
<style type="text/css">
	.st0{fill:#020D26;}
	.st1{fill:#FFFFFF;}
	.st2{fill:#2D95FC;}
	.st3{fill:#41A5F7;}
	.st4{fill:#0C65E5;}
</style>
<rect x="-50" y="-50" class="st0" fill-opacity="0" width="6100" height="2100"/>
<g>
	<path class="st1" d="M1993.4,859.9v120.3H2135v54.9h-141.5v125.6h159.2v54.8h-226.4V805.1h226.4v54.8H1993.4z"/>
	<path class="st1" d="M2349,1155.4l92-264.8h71.4l-123.8,324.9h-80.2l-123.2-324.9h71.9L2349,1155.4z"/>
	<path class="st1" d="M2549.2,964.9c13.6-25.1,32.1-44.7,55.5-58.6c23.4-14,49.2-20.9,77.5-20.9c25.5,0,47.8,5,66.9,15
		s34.3,22.5,45.7,37.4v-47.2h67.8v324.9h-67.8v-48.3c-11.4,15.3-26.9,28.1-46.6,38.3c-19.7,10.2-42.1,15.3-67.2,15.3
		c-27.9,0-53.5-7.2-76.7-21.5c-23.2-14.3-41.6-34.4-55.2-60.1c-13.5-25.8-20.3-55-20.3-87.6C2528.9,1019,2535.7,990.1,2549.2,964.9z
		 M2780.9,994.4c-9.2-16.5-21.3-29.1-36.3-37.7c-14.9-8.6-31-13-48.4-13c-17.3,0-33.4,4.2-48.3,12.7c-15,8.5-27,20.9-36.3,37.2
		c-9.2,16.3-13.8,35.7-13.8,58.1c0,22.4,4.6,42.1,13.8,59c9.3,16.9,21.5,29.8,36.6,38.6c15.1,8.9,31.2,13.3,48,13.3
		c17.3,0,33.5-4.3,48.4-13c15-8.6,27-21.3,36.3-38c9.3-16.7,13.9-36.3,13.9-58.7C2794.8,1030.4,2790.2,1010.9,2780.9,994.4z"/>
	<path class="st1" d="M3171.9,901.2c20.2,10.6,36.1,26.3,47.5,47.2c11.4,20.8,17.1,46,17.1,75.5v191.6h-66.6v-181.6
		c0-29.1-7.3-51.4-21.8-66.9c-14.5-15.5-34.4-23.3-59.5-23.3c-25.2,0-45.2,7.8-59.9,23.3c-14.7,15.5-22.1,37.8-22.1,66.9v181.6
		h-67.2V890.6h67.2v37.2c11-13.4,25.1-23.8,42.2-31.2c17.1-7.5,35.3-11.2,54.6-11.2C3128.8,885.3,3151.7,890.6,3171.9,901.2z"/>
	<path class="st1" d="M3727.2,1039.8c15.3,19.3,23,41.1,23,65.5c0,20.9-5.4,39.6-16.2,56.3c-10.9,16.7-26.5,29.9-46.9,39.5
		c-20.4,9.6-44.2,14.4-71.3,14.4h-163.9V805.7H3608c27.9,0,51.9,4.7,72,14.2c20,9.5,35.2,22.1,45.4,38
		c10.2,15.9,15.3,33.7,15.3,53.4c0,23.6-6.3,43.3-18.9,59c-12.5,15.7-29.5,27.3-50.7,34.8
		C3693.1,1008.9,3711.8,1020.5,3727.2,1039.8z M3519,977.9h83.1c22.1,0,39.2-5,51.6-15c12.4-10,18.5-24.5,18.5-43.3
		c0-18.5-6.2-32.9-18.5-43.3c-12.4-10.4-29.6-15.6-51.6-15.6H3519V977.9z M3663.4,1144.2c13-11,19.5-26.3,19.5-46
		c0-20.1-6.9-36-20.6-47.8c-13.8-11.8-32.1-17.7-54.9-17.7H3519v128h90.8C3632.6,1160.7,3650.5,1155.2,3663.4,1144.2z"/>
	<path class="st1" d="M4106.9,1078.1h-248.3c1.9,25.9,11.6,46.8,28.9,62.5c17.3,15.7,38.5,23.6,63.7,23.6
		c36.2,0,61.7-15.2,76.7-45.4h72.6c-9.9,29.9-27.6,54.4-53.4,73.4s-57.7,28.6-95.8,28.6c-31,0-58.9-7-83.4-20.9
		c-24.6-14-43.8-33.6-57.8-59c-14-25.4-21-54.7-21-88.2c0-33.4,6.8-62.8,20.4-88.1c13.6-25.4,32.6-44.9,57.2-58.7
		c24.6-13.8,52.8-20.6,84.6-20.6c30.7,0,58,6.7,82,20c23.9,13.4,42.6,32.2,56,56.3c13.3,24.2,20,52,20,83.4
		C4109.2,1057.3,4108.4,1068.3,4106.9,1078.1z M4039.1,1023.9c-0.4-24.8-9.3-44.6-26.6-59.6c-17.3-14.9-38.7-22.4-64.3-22.4
		c-23.2,0-43,7.4-59.6,22.1c-16.5,14.8-26.3,34.7-29.5,59.9H4039.1z"/>
	<path class="st1" d="M4161.4,964.6c13.6-25.4,32.4-44.9,56.3-58.7c24-13.8,51.5-20.6,82.6-20.6c39.3,0,71.8,9.3,97.6,28
		s43.2,45.3,52.2,79.9h-72.5c-5.9-16.1-15.3-28.7-28.3-37.7c-13-9-29.3-13.5-49-13.5c-27.5,0-49.4,9.7-65.7,29.2
		c-16.4,19.5-24.5,46.7-24.5,81.7c0,35,8.1,62.3,24.5,82c16.3,19.7,38.2,29.5,65.7,29.5c38.9,0,64.7-17.1,77.3-51.3h72.5
		c-9.4,33-27.1,59.3-53,78.7c-25.9,19.5-58.2,29.2-96.7,29.2c-31,0-58.6-7-82.6-20.9c-23.9-14-42.7-33.6-56.3-59
		c-13.5-25.4-20.3-54.7-20.3-88.2C4141.1,1019.4,4147.9,990,4161.4,964.6z"/>
	<path class="st1" d="M4634.1,1053.4l149.8,162.2h-90.8l-120.3-139.8v139.8h-67.2V779.2h67.2v253.6l118-142.1h93.2L4634.1,1053.4z"
		/>
	<path class="st1" d="M5115.9,1078.1h-248.3c1.9,25.9,11.6,46.8,28.9,62.5c17.3,15.7,38.5,23.6,63.7,23.6
		c36.2,0,61.7-15.2,76.7-45.4h72.6c-9.9,29.9-27.6,54.4-53.4,73.4s-57.7,28.6-95.8,28.6c-31,0-58.9-7-83.4-20.9
		c-24.6-14-43.8-33.6-57.8-59c-14-25.4-21-54.7-21-88.2c0-33.4,6.8-62.8,20.4-88.1c13.6-25.4,32.6-44.9,57.2-58.7
		c24.6-13.8,52.8-20.6,84.6-20.6c30.7,0,58,6.7,82,20c23.9,13.4,42.6,32.2,56,56.3c13.3,24.2,20,52,20,83.4
		C5118.2,1057.3,5117.4,1068.3,5115.9,1078.1z M5048,1023.9c-0.4-24.8-9.3-44.6-26.6-59.6c-17.3-14.9-38.7-22.4-64.3-22.4
		c-23.2,0-43,7.4-59.6,22.1c-16.5,14.8-26.3,34.7-29.5,59.9H5048z"/>
	<path class="st1" d="M5278.9,899.2c16.3-9.2,35.7-13.9,58.1-13.9v69.6h-17.1c-26.3,0-46.3,6.7-59.8,20
		c-13.6,13.4-20.4,36.6-20.4,69.6v171h-67.2V890.6h67.2v47.2C5249.5,921.3,5262.6,908.4,5278.9,899.2z"/>
</g>
<g>
	<g>
		<path class="st2" d="M1362.7,1110.4h-110.8c-61,0-110.4-49.4-110.4-110.4v0c0-61,49.4-110.4,110.4-110.4l107.8,0
			c36.5,0,70-25.5,75.4-61.6c6.9-46.4-28.2-85.6-72.4-85.6h-184.4V521.5l174.5,0c156.8,0,293.6,118.6,303.4,275.1
			C1667,968.1,1531.1,1110.4,1362.7,1110.4z"/>
	</g>
	<g>
		<path class="st3" d="M1362.7,1478.5h-184.4v-220.8l181.4,0c36.5,0,70-25.5,75.4-61.6c6.9-46.4-28.2-85.6-72.4-85.6h-110.8
			c-61,0-110.4-49.4-110.4-110.4v0c0-61,49.4-110.4,110.4-110.4l100.9,0c156.8,0,293.6,118.6,303.4,275.1
			C1667,1336.2,1531.1,1478.5,1362.7,1478.5z"/>
	</g>
	<g>
		<path class="st4" d="M994.3,1110.4H773.5V889.6h220.8c61,0,110.4,49.4,110.4,110.4v0C1104.7,1061,1055.3,1110.4,994.3,1110.4z"/>
	</g>
	<g>
		<path class="st4" d="M883.9,1257.6H663c0,121.8,99.1,220.8,220.8,220.8h294.4v-220.8h-256H883.9z"/>
		<rect x="663" y="889.6" class="st4" width="220.8" height="220.8"/>
		<path class="st4" d="M883.9,521.5c-121.8,0-220.8,99.1-220.8,220.8h220.8h38.4h256V521.5H883.9z"/>
	</g>
</g>
</svg>
